<svg xmlns="http://www.w3.org/2000/svg" version="1.1" xmlns:xlink="http://www.w3.org/1999/xlink" xmlns:svgjs="http://svgjs.dev/svgjs" width="1000" height="1000" viewBox="0 0 1000 1000"><rect width="1000" height="1000" fill="#111111"></rect><g transform="matrix(0.7,0,0,0.7,149.57575757575756,368.2704049819144)"><svg viewBox="0 0 396 149" data-background-color="#111111" preserveAspectRatio="xMidYMid meet" height="376" width="1000" xmlns="http://www.w3.org/2000/svg" xmlns:xlink="http://www.w3.org/1999/xlink"><g id="tight-bounds" transform="matrix(1,0,0,1,0.2400000000000091,0.07336496084636224)"><svg viewBox="0 0 395.52 148.85327007830728" height="148.85327007830728" width="395.52"><g><svg viewBox="0 0 395.52 148.85327007830728" height="148.85327007830728" width="395.52"><g><svg viewBox="0 0 397.4975999999999 149.5975364286988" height="148.85327007830728" width="395.52"><g><rect width="397.4975999999999" height="2.7096925380703256" x="0" y="84.08451205658197" fill="#ffffff" opacity="1" stroke-width="0" stroke="transparent" fill-opacity="1" class="rect-s$-0" data-fill-palette-color="secondary" rx="1%" id="s$-0" data-palette-color="#ffffff"></rect></g><g transform="matrix(1,0,0,1,0.9887999999999693,93.88764055818719)"><svg viewBox="0 0 395.52 55.70989587051163" height="55.70989587051163" width="395.52"><g id="textblocktransform"><svg viewBox="0 0 395.52 55.70989587051163" height="55.70989587051163" width="395.52" id="textblock"><g><svg viewBox="0 0 395.52 30.047255813953488" height="30.047255813953488" width="395.52"><g transform="matrix(1,0,0,1,0,0)"><svg width="395.52" viewBox="-12.5 -31.25 419.23 31.85" height="30.047255813953488" data-palette-color="#ffffff"><path d="M27.2-7.55L27.2-7.55 21-7.55 19.7 0 10.2 0 15.7-31.25 30.7-31.25Q39.2-31.25 39.2-23.35L39.2-23.35Q39.2-19.6 38.15-16.57 37.1-13.55 35.83-11.78 34.55-10 32.33-8.78 30.1-7.55 27.2-7.55ZM22.4-15.55L24.6-15.55Q26.3-15.55 27.18-15.93 28.05-16.3 28.3-17.65L28.3-17.65Q28.95-21.35 28.95-21.7L28.95-21.7Q28.95-22.65 28.2-22.95 27.45-23.25 25.95-23.25L25.95-23.25 23.75-23.25 22.4-15.55ZM9.1-2.4L8.7-0.15-12.5-2.4 9.1-2.4ZM10.8-12.05L10.4-9.8-10.8-12.05 10.8-12.05ZM12.45-21.65L12.05-19.4-9.1-21.65 12.45-21.65ZM13.3-26.45L12.9-24.2-8.25-26.45 13.3-26.45ZM9.95-7.25L9.55-5-11.65-7.25 9.95-7.25ZM14.15-31.25L13.75-29-7.4-31.25 14.15-31.25ZM11.6-16.85L11.2-14.6-9.95-16.85 11.6-16.85ZM71.5 0L62.75 0 62.55-4.05 56.25-4.05 54.7 0 46.05 0 57.15-26.45 69.55-26.45 71.5 0ZM58.9-11.2L62.55-11.2 62.55-18.8 61.85-18.8 58.9-11.2ZM45.4-2.4L44.45-0.2 23.95-2.4 45.4-2.4ZM47.45-7.25L46.5-5.05 26-7.25 47.45-7.25ZM49.45-12.05L48.55-9.85 28.05-12.05 49.45-12.05ZM51.5-16.85L50.55-14.65 30.1-16.85 51.5-16.85ZM53.5-21.65L52.6-19.45 32.15-21.65 53.5-21.65ZM55.5-26.45L54.6-24.3 34.2-26.45 55.5-26.45ZM105.55-26.45L104.19-18.95 98.8-18.95 95.5 0 86.69 0 90-18.95 84.44-18.95 85.8-26.45 105.55-26.45ZM85.59-2.4L85.19-0.15 63.99-2.4 85.59-2.4ZM87.3-12.05L86.89-9.8 65.69-12.05 87.3-12.05ZM88.14-16.85L87.75-14.6 66.55-16.85 88.14-16.85ZM83.34-21.65L82.94-19.4 61.74-21.65 83.34-21.65ZM84.14-26.45L83.8-24.2 62.59-26.45 84.14-26.45ZM86.44-7.25L86.05-5 64.84-7.25 86.44-7.25ZM136.64 0L128.24 0 129.79-9.15 124.19-9.15 122.59 0 114.19 0 118.79-26.45 127.24-26.45 125.59-17.3 131.24-17.3 132.84-26.45 141.29-26.45 136.64 0ZM112.94-2.4L112.54-0.15 91.34-2.4 112.94-2.4ZM114.64-12.05L114.24-9.8 93.04-12.05 114.64-12.05ZM115.49-16.85L115.09-14.6 93.89-16.85 115.49-16.85ZM116.34-21.65L115.94-19.4 94.74-21.65 116.34-21.65ZM117.14-26.45L116.79-24.2 95.59-26.45 117.14-26.45ZM113.79-7.25L113.39-5 92.19-7.25 113.79-7.25ZM169.79-7.55L169.79-7.55 163.59-7.55 162.29 0 152.79 0 158.29-31.25 173.29-31.25Q181.79-31.25 181.79-23.35L181.79-23.35Q181.79-19.6 180.74-16.57 179.69-13.55 178.42-11.78 177.14-10 174.92-8.78 172.69-7.55 169.79-7.55ZM164.99-15.55L167.19-15.55Q168.89-15.55 169.77-15.93 170.64-16.3 170.89-17.65L170.89-17.65Q171.54-21.35 171.54-21.7L171.54-21.7Q171.54-22.65 170.79-22.95 170.04-23.25 168.54-23.25L168.54-23.25 166.34-23.25 164.99-15.55ZM151.69-2.4L151.29-0.15 130.09-2.4 151.69-2.4ZM153.39-12.05L152.99-9.8 131.79-12.05 153.39-12.05ZM155.04-21.65L154.64-19.4 133.49-21.65 155.04-21.65ZM155.89-26.45L155.49-24.2 134.34-26.45 155.89-26.45ZM152.54-7.25L152.14-5 130.94-7.25 152.54-7.25ZM156.74-31.25L156.34-29 135.19-31.25 156.74-31.25ZM154.19-16.85L153.79-14.6 132.64-16.85 154.19-16.85ZM195.84-26.45L208.54-26.45Q215.84-26.45 215.84-19.85L215.84-19.85Q215.84-16.85 214.64-13.63 213.44-10.4 210.59-8.8L210.59-8.8 213.44 0 204.09 0 202.19-7.7 200.99-7.7 199.64 0 191.24 0 195.84-26.45ZM206.39-16.05L206.69-17.8Q206.69-17.85 206.74-18.3L206.74-18.3Q206.74-19.15 204.09-19.15L204.09-19.15 202.99-19.15 202.19-14.55 203.79-14.55Q206.09-14.55 206.39-16.05L206.39-16.05ZM189.99-2.4L189.59-0.15 168.39-2.4 189.99-2.4ZM191.69-12.05L191.29-9.8 170.09-12.05 191.69-12.05ZM192.54-16.85L192.14-14.6 170.94-16.85 192.54-16.85ZM193.39-21.65L192.99-19.4 171.79-21.65 193.39-21.65ZM194.19-26.45L193.84-24.2 172.64-26.45 194.19-26.45ZM190.84-7.25L190.44-5 169.24-7.25 190.84-7.25ZM242.54-26.95L242.54-26.95Q247.94-26.95 250.24-24.88 252.54-22.8 252.54-18.4L252.54-18.4Q252.54-16.25 251.99-13.2L251.99-13.2Q250.74-6 247.59-2.7 244.44 0.6 237.69 0.6L237.69 0.6Q232.39 0.6 230.14-1.48 227.89-3.55 227.89-7.9L227.89-7.9Q227.89-10.15 228.44-13.2L228.44-13.2Q229.69-20.4 232.79-23.68 235.89-26.95 242.54-26.95ZM236.19-7L239.14-7Q240.59-7 241.31-7.35 242.04-7.7 242.29-8.9L242.29-8.9 244.19-19.35 241.14-19.35Q239.74-19.35 238.96-19 238.19-18.65 238.04-17.5L238.04-17.5 236.19-7ZM206.74-12.05L226.69-12.05Q226.49-10.5 226.44-9.95L226.44-9.95 206.74-12.05ZM207.64-16.85L227.64-16.85 227.19-14.75 207.64-16.85ZM206.94-7.25L226.39-7.25Q226.39-6.45 226.59-5.15L226.59-5.15 206.94-7.25ZM209.64-21.65L229.39-21.65Q228.79-20.35 228.54-19.65L228.54-19.65 209.64-21.65ZM211.29-2.4L227.44-2.4Q228.04-1.2 228.74-0.55L228.74-0.55 211.29-2.4ZM216.34-26.45L233.74-26.45Q232.54-25.75 231.69-24.8L231.69-24.8 216.34-26.45ZM279.03 0L267.68 0 267.68-26.45 276.78-26.45 276.78-12.15 277.03-12.15 282.63-26.45 290.23-26.45 290.23-12.15 290.43-12.15 295.03-26.45 304.58-26.45 294.83 0 283.98 0 283.23-9.35 282.88-9.35 279.03 0ZM246.38-26.45L266.03-26.45 266.03-24.2 246.38-26.45ZM246.38-21.65L266.03-21.65 266.03-19.4 246.38-21.65ZM246.38-16.85L266.03-16.85 266.03-14.6 246.38-16.85ZM246.38-12.05L266.03-12.05 266.03-9.8 246.38-12.05ZM246.38-7.25L266.03-7.25 266.03-5 246.38-7.25ZM246.38-2.4L266.03-2.4 266.03-0.15 246.38-2.4ZM331.78-15.55L330.93-10.75 323.48-10.75 322.88-7.35 332.13-7.35 330.83 0 313.18 0 317.78-26.45 335.38-26.45 333.03-18.95 324.88-18.95 324.28-15.55 331.78-15.55ZM311.93-2.4L311.53-0.15 290.33-2.4 311.93-2.4ZM313.63-12.05L313.23-9.8 292.03-12.05 313.63-12.05ZM314.48-16.85L314.08-14.6 292.88-16.85 314.48-16.85ZM315.33-21.65L314.93-19.4 293.73-21.65 315.33-21.65ZM316.13-26.45L315.78-24.2 294.58-26.45 316.13-26.45ZM312.78-7.25L312.38-5 291.18-7.25 312.78-7.25ZM344.78-0.15L323.88-2.4 345.48-2.4 344.78-0.15ZM327.73-21.65L349.28-21.65Q348.98-20.85 348.63-19.4L348.63-19.4 327.73-21.65ZM348.03-15L348.03-15 348.03-14.6 326.83-16.85 348.13-16.85Q348.03-15.65 348.03-15ZM347.08-7.25L346.38-5.05 325.53-7.25 347.08-7.25ZM331.18-26.45L352.73-26.45Q351.38-25.45 350.68-24.35L350.68-24.35 331.18-26.45ZM328.78-12.05L348.48-12.05Q348.93-10.75 349.93-9.8L349.93-9.8 328.78-12.05ZM370.83-25.9L368.43-18.6Q365.03-19.4 362.63-19.4 360.23-19.4 359.08-19.25L359.08-19.25 358.83-17.8 361.33-17.5Q369.38-16.45 369.38-10.85L369.38-10.85Q369.38-10.2 369.08-8.43 368.78-6.65 368.08-5 367.38-3.35 366.3-2.33 365.23-1.3 364.2-0.68 363.18-0.05 361.58 0.2L361.58 0.2Q359.08 0.6 354.9 0.6 350.73 0.6 346.48-0.55L346.48-0.55 348.93-7.95Q352.83-6.85 355.75-6.85 358.68-6.85 359.88-7L359.88-7 360.13-8.6 356.98-8.95Q352.93-9.4 351.23-10.85 349.53-12.3 349.53-15L349.53-15Q349.53-16 349.78-17.5L349.78-17.5Q350.78-22.85 353.38-24.9 355.98-26.95 361.3-26.95 366.63-26.95 370.83-25.9L370.83-25.9ZM380.68-0.15L359.78-2.4 381.38-2.4 380.68-0.15ZM363.63-21.65L385.18-21.65Q384.88-20.85 384.53-19.4L384.53-19.4 363.63-21.65ZM383.93-15L383.93-15 383.93-14.6 362.73-16.85 384.03-16.85Q383.93-15.65 383.93-15ZM382.98-7.25L382.28-5.05 361.43-7.25 382.98-7.25ZM367.07-26.45L388.63-26.45Q387.28-25.45 386.57-24.35L386.57-24.35 367.07-26.45ZM364.68-12.05L384.38-12.05Q384.82-10.75 385.82-9.8L385.82-9.8 364.68-12.05ZM406.73-25.9L404.32-18.6Q400.93-19.4 398.53-19.4 396.13-19.4 394.98-19.25L394.98-19.25 394.73-17.8 397.23-17.5Q405.28-16.45 405.28-10.85L405.28-10.85Q405.28-10.2 404.98-8.43 404.68-6.65 403.98-5 403.28-3.35 402.2-2.33 401.13-1.3 400.1-0.68 399.07-0.05 397.48 0.2L397.48 0.2Q394.98 0.6 390.8 0.6 386.63 0.6 382.38-0.55L382.38-0.55 384.82-7.95Q388.73-6.85 391.65-6.85 394.57-6.85 395.78-7L395.78-7 396.03-8.6 392.88-8.95Q388.82-9.4 387.13-10.85 385.43-12.3 385.43-15L385.43-15Q385.43-16 385.68-17.5L385.68-17.5Q386.68-22.85 389.28-24.9 391.88-26.95 397.2-26.95 402.53-26.95 406.73-25.9L406.73-25.9Z" opacity="1" transform="matrix(1,0,0,1,0,0)" fill="#ffffff" class="undefined-text-0" data-fill-palette-color="primary" id="text-0"></path></svg></g></svg></g><g transform="matrix(1,0,0,1,0,37.14069177748837)"><svg viewBox="0 0 395.52 18.569204093023256" height="18.569204093023256" width="395.52"><g transform="matrix(1,0,0,1,0,0)"><svg width="395.52" viewBox="4.9 -36.6 1008.59 47.35" height="18.569204093023256" data-palette-color="#ffffff"><path d="M4.9-33L17.6-33Q21.15-33 23.73-31.75 26.3-30.5 27.75-28.2 29.2-25.9 29.2-22.65L29.2-22.65Q29.2-19.45 27.75-17.13 26.3-14.8 23.73-13.55 21.15-12.3 17.6-12.3L17.6-12.3 10.25-12.3 10.25 0 4.9 0 4.9-33ZM10.25-16.9L16.75-16.9Q20.3-16.9 21.98-18.38 23.65-19.85 23.65-22.65L23.65-22.65Q23.65-25.5 21.98-26.98 20.3-28.45 16.75-28.45L16.75-28.45 10.25-28.45 10.25-16.9ZM54.86-9.25L54.86-16.05Q54.86-18.55 53.48-19.93 52.11-21.3 49.71-21.3L49.71-21.3Q47.46-21.3 45.86-20.25 44.26-19.2 43.51-16.85L43.51-16.85 39.01-18.75Q39.96-21.8 42.73-23.65 45.51-25.5 49.91-25.5L49.91-25.5Q52.91-25.5 55.21-24.53 57.51-23.55 58.83-21.6 60.16-19.65 60.16-16.6L60.16-16.6 60.16-5.45Q60.16-3.6 62.01-3.6L62.01-3.6Q62.91-3.6 63.76-3.85L63.76-3.85 63.46-0.15Q62.31 0.4 60.56 0.4L60.56 0.4Q58.96 0.4 57.68-0.18 56.41-0.75 55.68-1.93 54.96-3.1 54.96-4.85L54.96-4.85 54.96-5.2 56.06-5.25Q55.61-3.3 54.21-2.02 52.81-0.75 50.96-0.13 49.11 0.5 47.21 0.5L47.21 0.5Q44.86 0.5 42.98-0.25 41.11-1 40.03-2.53 38.96-4.05 38.96-6.3L38.96-6.3Q38.96-9.1 40.78-10.9 42.61-12.7 45.96-13.35L45.96-13.35 55.66-15.25 55.61-11.5 48.56-10.05Q46.46-9.65 45.41-8.9 44.36-8.15 44.36-6.7L44.36-6.7Q44.36-5.3 45.43-4.48 46.51-3.65 48.31-3.65L48.31-3.65Q49.56-3.65 50.73-3.95 51.91-4.25 52.86-4.93 53.81-5.6 54.33-6.68 54.86-7.75 54.86-9.25L54.86-9.25ZM75.76-30.85L81.11-32.35 81.11-7.5Q81.11-5.65 82.09-4.8 83.06-3.95 84.71-3.95L84.71-3.95Q86.06-3.95 87.06-4.38 88.06-4.8 88.91-5.55L88.91-5.55 90.11-1.65Q88.96-0.65 87.29-0.08 85.61 0.5 83.56 0.5L83.56 0.5Q81.41 0.5 79.61-0.2 77.81-0.9 76.81-2.48 75.81-4.05 75.76-6.6L75.76-6.6 75.76-30.85ZM70.96-25L89.71-25 89.71-20.8 70.96-20.8 70.96-25ZM105.27 0L99.92 0 99.92-36.25 105.27-36.25 105.27-21Q106.52-23.35 108.65-24.43 110.77-25.5 113.37-25.5L113.37-25.5Q116.02-25.5 118.15-24.48 120.27-23.45 121.52-21.4 122.77-19.35 122.77-16.2L122.77-16.2 122.77 0 117.42 0 117.42-14.5Q117.42-18.2 115.9-19.65 114.37-21.1 112.07-21.1L112.07-21.1Q110.47-21.1 108.9-20.33 107.32-19.55 106.3-17.82 105.27-16.1 105.27-13.2L105.27-13.2 105.27 0ZM146.38-36.6L146.38-36.6Q147.93-36.6 149.2-36.27 150.48-35.95 151.13-35.4L151.13-35.4 150.13-31.55Q149.58-31.9 148.88-32.08 148.18-32.25 147.28-32.25L147.28-32.25Q145.23-32.25 144.05-31.3 142.88-30.35 142.88-28.2L142.88-28.2 142.88-24.55 143.03-23.2 143.03 0 137.68 0 137.68-28.6Q137.68-30.5 138.25-32 138.83-33.5 139.98-34.52 141.13-35.55 142.75-36.08 144.38-36.6 146.38-36.6ZM132.98-25L150.98-25 150.98-20.8 132.98-20.8 132.98-25ZM163.39-29.2L163.39-29.2Q161.64-29.2 160.71-30.08 159.79-30.95 159.79-32.55L159.79-32.55Q159.79-34.15 160.71-35 161.64-35.85 163.39-35.85L163.39-35.85Q165.09-35.85 166.01-35 166.94-34.15 166.94-32.55L166.94-32.55Q166.94-30.95 166.01-30.08 165.09-29.2 163.39-29.2ZM160.69-25L166.04-25 166.04 0 160.69 0 160.69-25ZM184.64 0L179.29 0 179.29-25 184.04-25 184.39-18.5 183.69-19.2Q184.39-21.35 185.72-22.78 187.04-24.2 188.87-24.85 190.69-25.5 192.74-25.5L192.74-25.5Q195.39-25.5 197.52-24.48 199.64-23.45 200.89-21.4 202.14-19.35 202.14-16.2L202.14-16.2 202.14 0 196.79 0 196.79-14.55Q196.79-18.25 195.27-19.68 193.74-21.1 191.44-21.1L191.44-21.1Q189.79-21.1 188.24-20.33 186.69-19.55 185.67-17.85 184.64-16.15 184.64-13.3L184.64-13.3 184.64 0ZM224.75 0.5L224.75 0.5Q221.65 0.5 219.12-1.05 216.6-2.6 215.15-5.5 213.7-8.4 213.7-12.45L213.7-12.45Q213.7-16.65 215.25-19.55 216.8-22.45 219.4-23.98 222-25.5 225.1-25.5L225.1-25.5Q228.3-25.5 230.5-23.75 232.7-22 233.45-19.2L233.45-19.2 232.85-18.65 232.85-36.25 238.2-36.25 238.2 0 233.45 0 233.05-6.8 233.75-6.75Q233.4-4.5 232.1-2.88 230.8-1.25 228.87-0.38 226.95 0.5 224.75 0.5ZM225.9-3.8L225.9-3.8Q228.05-3.8 229.6-4.9 231.15-6 232-8 232.85-10 232.85-12.8L232.85-12.8Q232.85-15.4 232-17.28 231.15-19.15 229.62-20.15 228.1-21.15 226.1-21.15L226.1-21.15Q222.75-21.15 220.9-18.85 219.05-16.55 219.05-12.5L219.05-12.5Q219.05-8.45 220.85-6.13 222.65-3.8 225.9-3.8ZM254.11-29.2L254.11-29.2Q252.36-29.2 251.43-30.08 250.51-30.95 250.51-32.55L250.51-32.55Q250.51-34.15 251.43-35 252.36-35.85 254.11-35.85L254.11-35.85Q255.81-35.85 256.73-35 257.66-34.15 257.66-32.55L257.66-32.55Q257.66-30.95 256.73-30.08 255.81-29.2 254.11-29.2ZM251.41-25L256.76-25 256.76 0 251.41 0 251.41-25ZM275.36 0L270.01 0 270.01-25 274.76-25 275.11-18.5 274.41-19.2Q275.11-21.35 276.44-22.78 277.76-24.2 279.59-24.85 281.41-25.5 283.46-25.5L283.46-25.5Q286.11-25.5 288.24-24.48 290.36-23.45 291.61-21.4 292.86-19.35 292.86-16.2L292.86-16.2 292.86 0 287.51 0 287.51-14.55Q287.51-18.25 285.99-19.68 284.46-21.1 282.16-21.1L282.16-21.1Q280.51-21.1 278.96-20.33 277.41-19.55 276.39-17.85 275.36-16.15 275.36-13.3L275.36-13.3 275.36 0ZM327.87-30.25L327.87-30.25 328.72-26.05Q328.57-26.05 328.42-26.08 328.27-26.1 328.12-26.1L328.12-26.1Q325.72-26.1 324.47-25.08 323.22-24.05 323.22-22.1L323.22-22.1 320.62-23.3Q320.62-25.3 321.47-26.88 322.32-28.45 323.9-29.35 325.47-30.25 327.47-30.25L327.47-30.25Q327.57-30.25 327.67-30.25 327.77-30.25 327.87-30.25ZM312.47-3.9L319.97-3.9Q323.77-3.9 325.87-2.23 327.97-0.55 327.97 2.4L327.97 2.4Q327.97 5 326.32 6.88 324.67 8.75 321.85 9.75 319.02 10.75 315.37 10.75L315.37 10.75Q309.22 10.75 306.27 8.85 303.32 6.95 303.32 4.1L303.32 4.1Q303.32 2.1 304.75 0.6 306.17-0.9 309.57-1.1L309.57-1.1 309.27-0.3Q307.17-0.75 305.9-1.93 304.62-3.1 304.62-5.25L304.62-5.25Q304.62-7.4 306.27-8.9 307.92-10.4 310.92-10.65L310.92-10.65 313.72-9.3 313.12-9.3Q310.82-9.1 309.87-8.25 308.92-7.4 308.92-6.35L308.92-6.35Q308.92-5.1 309.85-4.5 310.77-3.9 312.47-3.9L312.47-3.9ZM315.37 6.75L315.37 6.75Q318.12 6.75 319.9 6.23 321.67 5.7 322.55 4.88 323.42 4.05 323.42 3.05L323.42 3.05Q323.42 1.9 322.5 1.2 321.57 0.5 319.17 0.5L319.17 0.5 311.12 0.5Q309.72 0.5 308.77 1.23 307.82 1.95 307.82 3.2L307.82 3.2Q307.82 4.85 309.82 5.8 311.82 6.75 315.37 6.75ZM315.17-25.5L315.17-25.5Q318.47-25.5 320.9-24.45 323.32-23.4 324.65-21.5 325.97-19.6 325.97-17.05L325.97-17.05Q325.97-14.5 324.65-12.6 323.32-10.7 320.9-9.65 318.47-8.6 315.17-8.6L315.17-8.6Q309.97-8.6 307.2-10.93 304.42-13.25 304.42-17.05L304.42-17.05Q304.42-19.6 305.77-21.5 307.12-23.4 309.55-24.45 311.97-25.5 315.17-25.5ZM315.17-21.75L315.17-21.75Q312.87-21.75 311.35-20.48 309.82-19.2 309.82-17.05L309.82-17.05Q309.82-14.9 311.35-13.6 312.87-12.3 315.17-12.3L315.17-12.3Q317.52-12.3 319.05-13.6 320.57-14.9 320.57-17.05L320.57-17.05Q320.57-19.2 319.05-20.48 317.52-21.75 315.17-21.75ZM380.98-33L386.63-33 374.38 0 368.13 0 355.88-33 361.58-33 369.28-11.05 371.28-4.5 373.28-11 380.98-33ZM399.49-29.2L399.49-29.2Q397.74-29.2 396.82-30.08 395.89-30.95 395.89-32.55L395.89-32.55Q395.89-34.15 396.82-35 397.74-35.85 399.49-35.85L399.49-35.85Q401.19-35.85 402.12-35 403.04-34.15 403.04-32.55L403.04-32.55Q403.04-30.95 402.12-30.08 401.19-29.2 399.49-29.2ZM396.79-25L402.14-25 402.14 0 396.79 0 396.79-25ZM424.9 0.5L424.9 0.5Q421.15 0.5 418.05-0.95 414.95-2.4 413.15-5.05L413.15-5.05 416.85-8.25Q417.95-6.2 420.02-4.98 422.1-3.75 425-3.75L425-3.75Q427.3-3.75 428.65-4.55 430-5.35 430-6.8L430-6.8Q430-7.75 429.37-8.47 428.75-9.2 427-9.6L427-9.6 421.75-10.7Q417.75-11.5 416.05-13.28 414.35-15.05 414.35-17.8L414.35-17.8Q414.35-19.85 415.55-21.6 416.75-23.35 419.07-24.43 421.4-25.5 424.65-25.5L424.65-25.5Q428.4-25.5 431.05-24.18 433.7-22.85 435.1-20.4L435.1-20.4 431.4-17.3Q430.45-19.3 428.6-20.28 426.75-21.25 424.75-21.25L424.75-21.25Q423.15-21.25 422-20.85 420.85-20.45 420.25-19.75 419.65-19.05 419.65-18.1L419.65-18.1Q419.65-17.1 420.4-16.35 421.15-15.6 423.1-15.2L423.1-15.2 428.8-14Q432.4-13.3 433.87-11.63 435.35-9.95 435.35-7.55L435.35-7.55Q435.35-5.15 434.1-3.33 432.85-1.5 430.5-0.5 428.15 0.5 424.9 0.5ZM455.66 0.5L455.66 0.5Q453.21 0.5 451.13-0.4 449.06-1.3 447.81-3.3 446.56-5.3 446.56-8.5L446.56-8.5 446.56-25 451.91-25 451.91-9.85Q451.91-6.45 453.36-5.18 454.81-3.9 457.41-3.9L457.41-3.9Q458.66-3.9 459.83-4.33 461.01-4.75 461.96-5.68 462.91-6.6 463.43-8.05 463.96-9.5 463.96-11.45L463.96-11.45 463.96-25 469.31-25 469.31 0 464.61 0 464.36-4.05Q463.06-1.7 460.86-0.6 458.66 0.5 455.66 0.5ZM497.01-9.25L497.01-16.05Q497.01-18.55 495.64-19.93 494.26-21.3 491.86-21.3L491.86-21.3Q489.61-21.3 488.01-20.25 486.41-19.2 485.66-16.85L485.66-16.85 481.16-18.75Q482.11-21.8 484.89-23.65 487.66-25.5 492.06-25.5L492.06-25.5Q495.06-25.5 497.36-24.53 499.66-23.55 500.99-21.6 502.31-19.65 502.31-16.6L502.31-16.6 502.31-5.45Q502.31-3.6 504.16-3.6L504.16-3.6Q505.06-3.6 505.91-3.85L505.91-3.85 505.61-0.15Q504.46 0.4 502.71 0.4L502.71 0.4Q501.11 0.4 499.84-0.18 498.56-0.75 497.84-1.93 497.11-3.1 497.11-4.85L497.11-4.85 497.11-5.2 498.21-5.25Q497.76-3.3 496.36-2.02 494.96-0.75 493.11-0.13 491.26 0.5 489.36 0.5L489.36 0.5Q487.01 0.5 485.14-0.25 483.26-1 482.19-2.53 481.11-4.05 481.11-6.3L481.11-6.3Q481.11-9.1 482.94-10.9 484.76-12.7 488.11-13.35L488.11-13.35 497.81-15.25 497.76-11.5 490.71-10.05Q488.61-9.65 487.56-8.9 486.51-8.15 486.51-6.7L486.51-6.7Q486.51-5.3 487.59-4.48 488.66-3.65 490.46-3.65L490.46-3.65Q491.71-3.65 492.89-3.95 494.06-4.25 495.01-4.93 495.96-5.6 496.49-6.68 497.01-7.75 497.01-9.25L497.01-9.25ZM515.82-36.25L521.17-36.25 521.17-7Q521.17-5.15 521.82-4.45 522.47-3.75 523.97-3.75L523.97-3.75Q524.87-3.75 525.49-3.88 526.12-4 527.07-4.35L527.07-4.35 526.47-0.35Q525.62 0.05 524.52 0.28 523.42 0.5 522.32 0.5L522.32 0.5Q518.97 0.5 517.39-1.23 515.82-2.95 515.82-6.55L515.82-6.55 515.82-36.25ZM539.18-29.2L539.18-29.2Q537.43-29.2 536.5-30.08 535.58-30.95 535.58-32.55L535.58-32.55Q535.58-34.15 536.5-35 537.43-35.85 539.18-35.85L539.18-35.85Q540.88-35.85 541.8-35 542.73-34.15 542.73-32.55L542.73-32.55Q542.73-30.95 541.8-30.08 540.88-29.2 539.18-29.2ZM536.48-25L541.83-25 541.83 0 536.48 0 536.48-25ZM574.98 0L553.48 0 553.48-3.7 565.58-17.8 568.63-20.9 564.28-20.8 553.58-20.8 553.58-25 574.53-25 574.53-21.3 562.43-7.2 559.43-4.1 564.18-4.2 574.98-4.2 574.98 0ZM600.89-9.25L600.89-16.05Q600.89-18.55 599.52-19.93 598.14-21.3 595.74-21.3L595.74-21.3Q593.49-21.3 591.89-20.25 590.29-19.2 589.54-16.85L589.54-16.85 585.04-18.75Q585.99-21.8 588.77-23.65 591.54-25.5 595.94-25.5L595.94-25.5Q598.94-25.5 601.24-24.53 603.54-23.55 604.87-21.6 606.19-19.65 606.19-16.6L606.19-16.6 606.19-5.45Q606.19-3.6 608.04-3.6L608.04-3.6Q608.94-3.6 609.79-3.85L609.79-3.85 609.49-0.15Q608.34 0.4 606.59 0.4L606.59 0.4Q604.99 0.4 603.72-0.18 602.44-0.75 601.72-1.93 600.99-3.1 600.99-4.85L600.99-4.85 600.99-5.2 602.09-5.25Q601.64-3.3 600.24-2.02 598.84-0.75 596.99-0.13 595.14 0.5 593.24 0.5L593.24 0.5Q590.89 0.5 589.02-0.25 587.14-1 586.07-2.53 584.99-4.05 584.99-6.3L584.99-6.3Q584.99-9.1 586.82-10.9 588.64-12.7 591.99-13.35L591.99-13.35 601.69-15.25 601.64-11.5 594.59-10.05Q592.49-9.65 591.44-8.9 590.39-8.15 590.39-6.7L590.39-6.7Q590.39-5.3 591.47-4.48 592.54-3.65 594.34-3.65L594.34-3.65Q595.59-3.65 596.77-3.95 597.94-4.25 598.89-4.93 599.84-5.6 600.37-6.68 600.89-7.75 600.89-9.25L600.89-9.25ZM621.8-30.85L627.15-32.35 627.15-7.5Q627.15-5.65 628.12-4.8 629.1-3.95 630.75-3.95L630.75-3.95Q632.1-3.95 633.1-4.38 634.1-4.8 634.95-5.55L634.95-5.55 636.15-1.65Q635-0.65 633.32-0.08 631.65 0.5 629.6 0.5L629.6 0.5Q627.45 0.5 625.65-0.2 623.85-0.9 622.85-2.48 621.85-4.05 621.8-6.6L621.8-6.6 621.8-30.85ZM617-25L635.75-25 635.75-20.8 617-20.8 617-25ZM648.66-29.2L648.66-29.2Q646.91-29.2 645.98-30.08 645.06-30.95 645.06-32.55L645.06-32.55Q645.06-34.15 645.98-35 646.91-35.85 648.66-35.85L648.66-35.85Q650.36-35.85 651.28-35 652.21-34.15 652.21-32.55L652.21-32.55Q652.21-30.95 651.28-30.08 650.36-29.2 648.66-29.2ZM645.96-25L651.31-25 651.31 0 645.96 0 645.96-25ZM675.41-25.5L675.41-25.5Q679.06-25.5 681.86-23.95 684.66-22.4 686.24-19.48 687.81-16.55 687.81-12.5L687.81-12.5Q687.81-8.45 686.24-5.53 684.66-2.6 681.86-1.05 679.06 0.5 675.41 0.5L675.41 0.5Q671.76 0.5 668.96-1.05 666.16-2.6 664.56-5.53 662.96-8.45 662.96-12.5L662.96-12.5Q662.96-16.55 664.56-19.48 666.16-22.4 668.96-23.95 671.76-25.5 675.41-25.5ZM675.41-21.3L675.41-21.3Q673.16-21.3 671.59-20.28 670.01-19.25 669.16-17.3 668.31-15.35 668.31-12.5L668.31-12.5Q668.31-9.7 669.16-7.73 670.01-5.75 671.59-4.73 673.16-3.7 675.41-3.7L675.41-3.7Q677.66-3.7 679.21-4.73 680.76-5.75 681.61-7.73 682.46-9.7 682.46-12.5L682.46-12.5Q682.46-15.35 681.61-17.3 680.76-19.25 679.21-20.28 677.66-21.3 675.41-21.3ZM704.82 0L699.47 0 699.47-25 704.22-25 704.57-18.5 703.87-19.2Q704.57-21.35 705.89-22.78 707.22-24.2 709.04-24.85 710.87-25.5 712.92-25.5L712.92-25.5Q715.57-25.5 717.69-24.48 719.82-23.45 721.07-21.4 722.32-19.35 722.32-16.2L722.32-16.2 722.32 0 716.97 0 716.97-14.55Q716.97-18.25 715.44-19.68 713.92-21.1 711.62-21.1L711.62-21.1Q709.97-21.1 708.42-20.33 706.87-19.55 705.84-17.85 704.82-16.15 704.82-13.3L704.82-13.3 704.82 0ZM758.83 0L753.33 0 765.78-33 772.18-33 784.63 0 778.98 0 770.48-23.6 768.98-28.35 768.83-28.35 767.43-23.7 758.83 0ZM777.83-8.65L759.98-8.65 759.98-13 777.83-13 777.83-8.65ZM799.99 0L794.64 0 794.64-25 799.39-25 799.74-18.5 799.04-19.2Q799.74-21.35 801.07-22.78 802.39-24.2 804.22-24.85 806.04-25.5 808.09-25.5L808.09-25.5Q810.74-25.5 812.87-24.48 814.99-23.45 816.24-21.4 817.49-19.35 817.49-16.2L817.49-16.2 817.49 0 812.14 0 812.14-14.55Q812.14-18.25 810.62-19.68 809.09-21.1 806.79-21.1L806.79-21.1Q805.14-21.1 803.59-20.33 802.04-19.55 801.02-17.85 799.99-16.15 799.99-13.3L799.99-13.3 799.99 0ZM844.95-9.25L844.95-16.05Q844.95-18.55 843.57-19.93 842.2-21.3 839.8-21.3L839.8-21.3Q837.55-21.3 835.95-20.25 834.35-19.2 833.6-16.85L833.6-16.85 829.1-18.75Q830.05-21.8 832.82-23.65 835.6-25.5 840-25.5L840-25.5Q843-25.5 845.3-24.53 847.6-23.55 848.92-21.6 850.25-19.65 850.25-16.6L850.25-16.6 850.25-5.45Q850.25-3.6 852.1-3.6L852.1-3.6Q853-3.6 853.85-3.85L853.85-3.85 853.55-0.15Q852.4 0.4 850.65 0.4L850.65 0.4Q849.05 0.4 847.77-0.18 846.5-0.75 845.77-1.93 845.05-3.1 845.05-4.85L845.05-4.85 845.05-5.2 846.15-5.25Q845.7-3.3 844.3-2.02 842.9-0.75 841.05-0.13 839.2 0.5 837.3 0.5L837.3 0.5Q834.95 0.5 833.07-0.25 831.2-1 830.12-2.53 829.05-4.05 829.05-6.3L829.05-6.3Q829.05-9.1 830.87-10.9 832.7-12.7 836.05-13.35L836.05-13.35 845.75-15.25 845.7-11.5 838.65-10.05Q836.55-9.65 835.5-8.9 834.45-8.15 834.45-6.7L834.45-6.7Q834.45-5.3 835.52-4.48 836.6-3.65 838.4-3.65L838.4-3.65Q839.65-3.65 840.82-3.95 842-4.25 842.95-4.93 843.9-5.6 844.42-6.68 844.95-7.75 844.95-9.25L844.95-9.25ZM863.75-36.25L869.1-36.25 869.1-7Q869.1-5.15 869.75-4.45 870.4-3.75 871.9-3.75L871.9-3.75Q872.8-3.75 873.43-3.88 874.05-4 875-4.35L875-4.35 874.4-0.35Q873.55 0.05 872.45 0.28 871.35 0.5 870.25 0.5L870.25 0.5Q866.9 0.5 865.33-1.23 863.75-2.95 863.75-6.55L863.75-6.55 863.75-36.25ZM900.81-25L906.36-25 895.41 2.95Q894.31 5.85 893.04 7.55 891.76 9.25 890.11 10 888.46 10.75 886.26 10.75L886.26 10.75Q884.46 10.75 882.94 10.28 881.41 9.8 880.26 9L880.26 9 881.56 4.85Q882.51 5.65 883.59 6.05 884.66 6.45 885.91 6.45L885.91 6.45Q887.26 6.45 888.34 5.73 889.41 5 890.26 2.85L890.26 2.85 891.36 0.15 888.71-6.05 880.91-25 886.91-25 892.46-9.3 893.91-4.6 895.56-9.75 900.81-25ZM917.77-30.85L923.12-32.35 923.12-7.5Q923.12-5.65 924.09-4.8 925.07-3.95 926.72-3.95L926.72-3.95Q928.07-3.95 929.07-4.38 930.07-4.8 930.92-5.55L930.92-5.55 932.12-1.65Q930.97-0.65 929.29-0.08 927.62 0.5 925.57 0.5L925.57 0.5Q923.42 0.5 921.62-0.2 919.82-0.9 918.82-2.48 917.82-4.05 917.77-6.6L917.77-6.6 917.77-30.85ZM912.97-25L931.72-25 931.72-20.8 912.97-20.8 912.97-25ZM944.63-29.2L944.63-29.2Q942.88-29.2 941.95-30.08 941.03-30.95 941.03-32.55L941.03-32.55Q941.03-34.15 941.95-35 942.88-35.85 944.63-35.85L944.63-35.85Q946.33-35.85 947.25-35 948.18-34.15 948.18-32.55L948.18-32.55Q948.18-30.95 947.25-30.08 946.33-29.2 944.63-29.2ZM941.93-25L947.28-25 947.28 0 941.93 0 941.93-25ZM971.33-25.5L971.33-25.5Q974.33-25.5 976.46-24.63 978.58-23.75 980.03-22.15 981.48-20.55 982.23-18.5L982.23-18.5 977.18-16.5Q976.53-18.8 975.11-20.03 973.68-21.25 971.38-21.25L971.38-21.25Q969.13-21.25 967.53-20.23 965.93-19.2 965.11-17.25 964.28-15.3 964.28-12.45L964.28-12.45Q964.28-9.65 965.13-7.7 965.98-5.75 967.58-4.75 969.18-3.75 971.38-3.75L971.38-3.75Q973.08-3.75 974.33-4.33 975.58-4.9 976.41-5.98 977.23-7.05 977.53-8.6L977.53-8.6 982.38-6.95Q981.68-4.7 980.21-3.03 978.73-1.35 976.53-0.43 974.33 0.5 971.48 0.5L971.48 0.5Q967.78 0.5 964.93-1.05 962.08-2.6 960.51-5.53 958.93-8.45 958.93-12.5L958.93-12.5Q958.93-16.55 960.51-19.48 962.08-22.4 964.91-23.95 967.73-25.5 971.33-25.5ZM1003.04 0.5L1003.04 0.5Q999.29 0.5 996.19-0.95 993.09-2.4 991.29-5.05L991.29-5.05 994.99-8.25Q996.09-6.2 998.16-4.98 1000.24-3.75 1003.14-3.75L1003.14-3.75Q1005.44-3.75 1006.79-4.55 1008.14-5.35 1008.14-6.8L1008.14-6.8Q1008.14-7.75 1007.51-8.47 1006.89-9.2 1005.14-9.6L1005.14-9.6 999.89-10.7Q995.89-11.5 994.19-13.28 992.49-15.05 992.49-17.8L992.49-17.8Q992.49-19.85 993.69-21.6 994.89-23.35 997.21-24.43 999.54-25.5 1002.79-25.5L1002.79-25.5Q1006.54-25.5 1009.19-24.18 1011.84-22.85 1013.24-20.4L1013.24-20.4 1009.54-17.3Q1008.59-19.3 1006.74-20.28 1004.89-21.25 1002.89-21.25L1002.89-21.25Q1001.29-21.25 1000.14-20.85 998.99-20.45 998.39-19.75 997.79-19.05 997.79-18.1L997.79-18.1Q997.79-17.1 998.54-16.35 999.29-15.6 1001.24-15.2L1001.24-15.2 1006.94-14Q1010.54-13.3 1012.01-11.63 1013.49-9.95 1013.49-7.55L1013.49-7.55Q1013.49-5.15 1012.24-3.33 1010.99-1.5 1008.64-0.5 1006.29 0.5 1003.04 0.5Z" opacity="1" transform="matrix(1,0,0,1,0,0)" fill="#ffffff" class="undefined-text-1" data-fill-palette-color="secondary" id="text-1"></path></svg></g></svg></g></svg></g></svg></g><g transform="matrix(1,0,0,1,152.25326195347643,0)"><svg viewBox="0 0 92.99107609304708 76.99107609304708" height="76.99107609304708" width="92.99107609304708"><g><svg xmlns="http://www.w3.org/2000/svg" xmlns:xlink="http://www.w3.org/1999/xlink" version="1.1" x="8" y="0" viewBox="0 0 64 64" enable-background="new 0 0 64 64" xml:space="preserve" height="76.99107609304708" width="76.99107609304708" class="icon-icon-0" data-fill-palette-color="accent" id="icon-0"><polygon points="0,33 3,33 3,23 23,23 23,21 3,21 3,3 41,3 41,23 43,23 43,3 61,3 61,23 64,23 64,0 0,0 " fill="#b2fcfb" data-fill-palette-color="accent"></polygon><polygon points="0,64 0,41 23,41 23,43 3,43 3,61 41,61 41,41 43,41 43,61 61,61 61,33 53,33 53,53 51,53 51,33 33,33 33,53 11,53   11,51 31,51 31,33 11,33 11,31 31,31 31,13 11,13 11,11 33,11 33,31 51,31 51,11 53,11 53,31 64,31 64,64 " fill="#b2fcfb" data-fill-palette-color="accent"></polygon></svg></g></svg></g><g><rect width="75.72014195347646" height="2.7096925380703256" y="73.28138355497676" x="245.24433804652352" fill="#ffffff" data-fill-palette-color="secondary"></rect><rect width="75.72014195347646" height="2.7096925380703256" y="73.28138355497676" x="76.53311999999997" fill="#ffffff" data-fill-palette-color="secondary"></rect></g></svg></g></svg></g><defs></defs></svg><rect width="395.52" height="148.85327007830728" fill="none" stroke="none" visibility="hidden"></rect></g></svg></g></svg>